<?xml version="1.0" encoding="UTF-8" standalone="no"?>
<svg
   xmlns:dc="http://purl.org/dc/elements/1.1/"
   xmlns:cc="http://creativecommons.org/ns#"
   xmlns:rdf="http://www.w3.org/1999/02/22-rdf-syntax-ns#"
   xmlns:svg="http://www.w3.org/2000/svg"
   xmlns="http://www.w3.org/2000/svg"
   xmlns:sodipodi="http://sodipodi.sourceforge.net/DTD/sodipodi-0.dtd"
   xmlns:inkscape="http://www.inkscape.org/namespaces/inkscape"
   width="43.844109mm"
   height="43.834839mm"
   viewBox="0 0 43.844109 43.834839"
   version="1.1"
   id="svg8"
   inkscape:version="1.0.1 (3bc2e813f5, 2020-09-07)">
  <defs
     id="defs2" />
  <sodipodi:namedview
     id="base"
     pagecolor="#ffffff"
     bordercolor="#666666"
     borderopacity="1.0"
     inkscape:pageopacity="0.0"
     inkscape:pageshadow="2"
     inkscape:zoom="0.98994949"
     inkscape:cx="10.159671"
     inkscape:cy="75.738493"
     inkscape:document-units="mm"
     inkscape:current-layer="layer1"
     inkscape:document-rotation="0"
     showgrid="false"
     fit-margin-top="0"
     fit-margin-left="0"
     fit-margin-right="0"
     fit-margin-bottom="0"
     inkscape:window-width="1366"
     inkscape:window-height="731"
     inkscape:window-x="0"
     inkscape:window-y="0"
     inkscape:window-maximized="1" />
  <metadata
     id="metadata5">
    <rdf:RDF>
      <cc:Work
         rdf:about="">
        <dc:format>image/svg+xml</dc:format>
        <dc:type
           rdf:resource="http://purl.org/dc/dcmitype/StillImage" />
        <dc:title></dc:title>
      </cc:Work>
    </rdf:RDF>
  </metadata>
  <g
     inkscape:label="Layer 1"
     inkscape:groupmode="layer"
     id="layer1"
     transform="translate(-94.068426,-115.37568)">
    <path
       style="fill:#f1fa3c;fill-opacity:1;stroke-width:0.264583"
       d="m 112.5509,159.09215 c -9.42069,-1.81495 -16.30201,-8.47133 -18.13748,-17.54461 -0.58503,-2.892 -0.40818,-7.49456 0.39536,-10.28887 2.0535,-7.14109 7.99195,-13.09286 15.09629,-15.13016 2.84312,-0.81532 7.42354,-0.99564 10.33421,-0.40682 8.10745,1.64008 14.66764,7.65946 16.9329,15.53698 0.80354,2.79431 0.98039,7.39687 0.39536,10.28887 -1.63986,8.1063 -7.64419,14.65156 -15.53698,16.93671 -1.90376,0.55118 -7.80859,0.92984 -9.47966,0.6079 z m -3.88521,-10.18036 c 0.31786,-0.16127 2.09397,-1.79467 3.94693,-3.62979 l 3.369,-3.33657 3.51027,3.47587 c 3.82127,3.78384 4.38192,4.10338 6.13032,3.494 1.80909,-0.63053 2.7761,-2.72521 1.98131,-4.29176 -0.16126,-0.31786 -1.79665,-2.09597 -3.6342,-3.95136 l -3.341,-3.37344 3.341,-3.37343 c 1.83755,-1.85539 3.47294,-3.6335 3.6342,-3.95136 0.79479,-1.56655 -0.17222,-3.66123 -1.98131,-4.29176 -1.74811,-0.60928 -2.30927,-0.28962 -6.12589,3.48961 l -3.50584,3.47149 -3.50584,-3.47149 c -3.81661,-3.77923 -4.37777,-4.09889 -6.12589,-3.48961 -1.80908,0.63053 -2.7761,2.72521 -1.98131,4.29176 0.16126,0.31786 1.79666,2.09597 3.6342,3.95136 l 3.341,3.37343 -3.341,3.37344 c -1.83754,1.85539 -3.47294,3.6335 -3.6342,3.95136 -1.24554,2.45499 1.83326,5.53379 4.28825,4.28825 z"
       id="path907" />
  </g>
</svg>
